<mxfile host="app.diagrams.net" modified="2023-10-06T14:15:49.690Z" agent="Mozilla/5.0 (Windows NT 10.0; Win64; x64) AppleWebKit/537.36 (KHTML, like Gecko) Chrome/116.0.5845.967 YaBrowser/23.9.1.967 Yowser/2.5 Safari/537.36" etag="4P9hIOPyPiV8QS5r2qtK" version="22.0.0" type="device">
  <diagram name="Page-1" id="c4acf3e9-155e-7222-9cf6-157b1a14988f">
    <mxGraphModel dx="1386" dy="791" grid="1" gridSize="10" guides="1" tooltips="1" connect="1" arrows="1" fold="1" page="1" pageScale="1" pageWidth="850" pageHeight="1100" background="none" math="0" shadow="0">
      <root>
        <mxCell id="0" />
        <mxCell id="1" parent="0" />
        <mxCell id="17acba5748e5396b-1" value="frame" style="shape=umlFrame;whiteSpace=wrap;html=1;rounded=0;shadow=0;comic=0;labelBackgroundColor=none;strokeWidth=1;fontFamily=Verdana;fontSize=10;align=center;" parent="1" vertex="1">
          <mxGeometry x="20" y="20" width="820" height="1060" as="geometry" />
        </mxCell>
        <mxCell id="Dxf6W-MZp8bKt2jTNwQx-6" style="edgeStyle=orthogonalEdgeStyle;rounded=0;orthogonalLoop=1;jettySize=auto;html=1;" edge="1" parent="1" source="Dxf6W-MZp8bKt2jTNwQx-1" target="Dxf6W-MZp8bKt2jTNwQx-5">
          <mxGeometry relative="1" as="geometry" />
        </mxCell>
        <mxCell id="Dxf6W-MZp8bKt2jTNwQx-8" style="rounded=0;orthogonalLoop=1;jettySize=auto;html=1;entryX=0;entryY=0.5;entryDx=0;entryDy=0;" edge="1" parent="1" source="Dxf6W-MZp8bKt2jTNwQx-1" target="Dxf6W-MZp8bKt2jTNwQx-7">
          <mxGeometry relative="1" as="geometry" />
        </mxCell>
        <mxCell id="Dxf6W-MZp8bKt2jTNwQx-10" style="rounded=0;orthogonalLoop=1;jettySize=auto;html=1;entryX=0;entryY=0.5;entryDx=0;entryDy=0;" edge="1" parent="1" source="Dxf6W-MZp8bKt2jTNwQx-1" target="Dxf6W-MZp8bKt2jTNwQx-9">
          <mxGeometry relative="1" as="geometry" />
        </mxCell>
        <mxCell id="Dxf6W-MZp8bKt2jTNwQx-1" value="Администратор" style="shape=umlActor;verticalLabelPosition=bottom;verticalAlign=top;html=1;" vertex="1" parent="1">
          <mxGeometry x="90" y="190" width="30" height="60" as="geometry" />
        </mxCell>
        <mxCell id="Dxf6W-MZp8bKt2jTNwQx-4" style="edgeStyle=orthogonalEdgeStyle;rounded=0;orthogonalLoop=1;jettySize=auto;html=1;entryX=0;entryY=0.5;entryDx=0;entryDy=0;" edge="1" parent="1" source="Dxf6W-MZp8bKt2jTNwQx-2" target="Dxf6W-MZp8bKt2jTNwQx-3">
          <mxGeometry relative="1" as="geometry" />
        </mxCell>
        <mxCell id="Dxf6W-MZp8bKt2jTNwQx-2" value="Сотрудник" style="shape=umlActor;verticalLabelPosition=bottom;verticalAlign=top;html=1;" vertex="1" parent="1">
          <mxGeometry x="90" y="495" width="30" height="60" as="geometry" />
        </mxCell>
        <mxCell id="Dxf6W-MZp8bKt2jTNwQx-3" value="Предоставление лица" style="ellipse;whiteSpace=wrap;html=1;" vertex="1" parent="1">
          <mxGeometry x="220" y="490" width="140" height="70" as="geometry" />
        </mxCell>
        <mxCell id="Dxf6W-MZp8bKt2jTNwQx-5" value="Подготовка данных" style="ellipse;whiteSpace=wrap;html=1;" vertex="1" parent="1">
          <mxGeometry x="220" y="185" width="140" height="70" as="geometry" />
        </mxCell>
        <mxCell id="Dxf6W-MZp8bKt2jTNwQx-7" value="Обучение модели" style="ellipse;whiteSpace=wrap;html=1;" vertex="1" parent="1">
          <mxGeometry x="220" y="80" width="140" height="70" as="geometry" />
        </mxCell>
        <mxCell id="Dxf6W-MZp8bKt2jTNwQx-9" value="Создание фото сотрудников" style="ellipse;whiteSpace=wrap;html=1;" vertex="1" parent="1">
          <mxGeometry x="220" y="300" width="140" height="70" as="geometry" />
        </mxCell>
      </root>
    </mxGraphModel>
  </diagram>
</mxfile>
